<svg width="9" height="18" viewBox="0 0 9 18" fill="none" xmlns="http://www.w3.org/2000/svg">
<path d="M8.09019 17.67C8.28019 17.67 8.47019 17.6 8.62019 17.45C8.75967 17.3089 8.83789 17.1185 8.83789 16.92C8.83789 16.7216 8.75967 16.5312 8.62019 16.39L2.10019 9.87002C1.62019 9.39002 1.62019 8.61002 2.10019 8.13002L8.62019 1.61002C8.75967 1.46888 8.83789 1.27845 8.83789 1.08002C8.83789 0.881589 8.75967 0.691157 8.62019 0.55002C8.33019 0.26002 7.85019 0.26002 7.56019 0.55002L1.04019 7.07002C0.530189 7.58002 0.240189 8.27002 0.240189 9.00002C0.240189 9.73002 0.520189 10.42 1.04019 10.93L7.56019 17.45C7.71019 17.59 7.90019 17.67 8.09019 17.67Z" fill="black"/>
</svg>
