<svg width="24" height="24" viewBox="0 0 24 24" fill="none" xmlns="http://www.w3.org/2000/svg">
<path d="M12 22.75C6.07 22.75 1.25 17.93 1.25 12C1.25 6.07 6.07 1.25 12 1.25C17.93 1.25 22.75 6.07 22.75 12C22.75 12.41 22.41 12.75 22 12.75C21.59 12.75 21.25 12.41 21.25 12C21.25 6.9 17.1 2.75 12 2.75C6.9 2.75 2.75 6.9 2.75 12C2.75 17.1 6.9 21.25 12 21.25C12.41 21.25 12.75 21.59 12.75 22C12.75 22.41 12.41 22.75 12 22.75Z" fill="#575757"/>
<path d="M8.99999 21.75H7.99999C7.58999 21.75 7.24999 21.41 7.24999 21C7.24999 20.59 7.56999 20.26 7.97999 20.25C6.40999 14.862 6.40999 9.13795 7.97999 3.74999C7.78473 3.74428 7.59936 3.66281 7.46311 3.52282C7.32686 3.38284 7.25043 3.19533 7.24999 2.99999C7.24999 2.58999 7.58999 2.24999 7.99999 2.24999H8.99999C9.23999 2.24999 9.46999 2.36999 9.60999 2.55999C9.74999 2.75999 9.78999 3.00999 9.70999 3.23999C7.82999 8.93211 7.82999 15.0779 9.70999 20.77C9.78999 21 9.74999 21.25 9.60999 21.45C9.46999 21.65 9.23999 21.75 8.99999 21.75ZM16.46 12.748C16.05 12.748 15.71 12.408 15.71 11.998C15.71 9.01799 15.23 6.06799 14.29 3.23799C14.16 2.84799 14.37 2.41799 14.76 2.28799C15.15 2.15799 15.58 2.36799 15.71 2.75799C16.7 5.73799 17.21 8.84799 17.21 11.998C17.21 12.408 16.87 12.748 16.46 12.748Z" fill="#575757"/>
<path d="M11.9999 17.2098C9.19993 17.2098 6.42994 16.8098 3.74994 16.0198C3.73994 16.4198 3.40994 16.7498 2.99994 16.7498C2.58994 16.7498 2.24994 16.4098 2.24994 15.9998V14.9998C2.24994 14.7598 2.36994 14.5298 2.55994 14.3898C2.74994 14.2498 3.00994 14.2098 3.23994 14.2898C6.06994 15.2298 9.01994 15.7098 11.9999 15.7098C12.4099 15.7098 12.7499 16.0498 12.7499 16.4598C12.7499 16.8698 12.4099 17.2098 11.9999 17.2098ZM20.9999 9.74984C20.9199 9.74984 20.8399 9.73984 20.7599 9.70984C15.0678 7.82984 8.92205 7.82984 3.22994 9.70984C3.04161 9.77252 2.83614 9.7583 2.65824 9.67029C2.48033 9.58227 2.34438 9.42757 2.27994 9.23984C2.14994 8.84984 2.35994 8.41984 2.74994 8.28984C8.7458 6.29987 15.2241 6.29987 21.2199 8.28984C21.6099 8.41984 21.8199 8.84984 21.6899 9.23984C21.6099 9.54984 21.3099 9.74984 20.9999 9.74984ZM15.8199 22.7498C15.4399 22.7498 15.0799 22.6098 14.8199 22.3498C14.5099 22.0398 14.3699 21.5898 14.4399 21.1198L14.6299 19.7698C14.6799 19.4198 14.8899 18.9998 15.1399 18.7498L18.6799 15.2098C19.1599 14.7298 19.6299 14.4798 20.1399 14.4298C20.7699 14.3698 21.3799 14.6298 21.9599 15.2098C22.5399 15.7898 22.7999 16.3998 22.7399 17.0298C22.6899 17.5298 22.4299 18.0098 21.9599 18.4898L18.4199 22.0298C18.1699 22.2798 17.7599 22.4898 17.4099 22.5398L16.0599 22.7298C15.9699 22.7398 15.8999 22.7498 15.8199 22.7498ZM20.3099 15.9198H20.2799C20.1399 15.9298 19.9499 16.0498 19.7399 16.2698L16.1999 19.8098C16.1595 19.8589 16.132 19.9174 16.1199 19.9798L15.9399 21.2298L17.1899 21.0498C17.2299 21.0398 17.3299 20.9898 17.3599 20.9598L20.8999 17.4198C21.1099 17.2098 21.2399 17.0198 21.2499 16.8798C21.2699 16.6798 21.0699 16.4398 20.8999 16.2698C20.7399 16.1098 20.5099 15.9198 20.3099 15.9198Z" fill="#575757"/>
<path d="M20.9201 19.2209C20.8501 19.2209 20.7801 19.2109 20.7201 19.1909C20.0676 19.0057 19.4734 18.6567 18.9938 18.1772C18.5142 17.6976 18.1653 17.1033 17.9801 16.4509C17.8701 16.0509 18.1001 15.6409 18.5001 15.5309C18.9001 15.4209 19.3101 15.6509 19.4301 16.0509C19.6601 16.8709 20.3101 17.5209 21.1301 17.7509C21.5301 17.8609 21.7601 18.2809 21.6501 18.6709C21.5501 19.0009 21.2501 19.2209 20.9201 19.2209Z" fill="#575757"/>
</svg>
