<svg width="43" height="106" viewBox="0 0 43 106" fill="none" xmlns="http://www.w3.org/2000/svg">
<circle cx="4.72437" cy="65.3677" r="4.56971" transform="rotate(-89.8728 4.72437 65.3677)" fill="#2F2F2F"/>
<circle cx="4.57663" cy="42.5422" r="4.56971" transform="rotate(-89.9132 4.57663 42.5422)" fill="#2F2F2F"/>
<path d="M13.0933 1.90134C14.0144 0.620251 15.8038 0.323636 17.0447 1.29814C24.4608 7.12192 30.5822 14.4431 35.0029 22.796C39.8696 31.9915 42.5432 42.1883 42.8147 52.5887C43.0861 62.9892 40.9481 73.3115 36.5677 82.7484C32.5888 91.3206 26.8577 98.9511 19.7555 105.154C18.5671 106.192 16.7647 105.989 15.778 104.758V104.758C14.7913 103.526 14.9945 101.733 16.1789 100.691C22.5954 95.0422 27.7771 88.1154 31.385 80.3427C35.3943 71.7052 37.3512 62.2573 37.1027 52.7378C36.8542 43.2184 34.4071 33.8854 29.9526 25.4688C25.9442 17.8949 20.4082 11.2478 13.7058 5.94186C12.4686 4.96249 12.1722 3.18244 13.0933 1.90134V1.90134Z" fill="#2F2F2F"/>
</svg>
