<svg width="22" height="22" viewBox="0 0 22 22" fill="none" xmlns="http://www.w3.org/2000/svg">
<path d="M10.9634 3.84922C10.681 3.84922 10.4445 3.75684 10.2538 3.57208C10.0624 3.38796 9.96674 3.15957 9.96674 2.88692V0.962306C9.96674 0.689653 10.0624 0.460945 10.2538 0.276182C10.4445 0.0920605 10.681 0 10.9634 0C11.2458 0 11.4827 0.0920605 11.674 0.276182C11.8647 0.460945 11.9601 0.689653 11.9601 0.962306V2.88692C11.9601 3.15957 11.8647 3.38796 11.674 3.57208C11.4827 3.75684 11.2458 3.84922 10.9634 3.84922ZM15.897 5.82195C15.7142 5.64553 15.6229 5.42484 15.6229 5.15988C15.6229 4.89557 15.7142 4.66718 15.897 4.47472L17.2923 3.10344C17.4916 2.91098 17.7282 2.81475 18.0019 2.81475C18.2763 2.81475 18.5132 2.91098 18.7126 3.10344C18.8953 3.27986 18.9866 3.5044 18.9866 3.77705C18.9866 4.0497 18.8953 4.27424 18.7126 4.45067L17.2923 5.82195C17.1096 5.99837 16.877 6.08659 16.5946 6.08659C16.3122 6.08659 16.0797 5.99837 15.897 5.82195ZM18.9368 11.5477C18.6544 11.5477 18.4179 11.4553 18.2272 11.2705C18.0358 11.0864 17.9401 10.858 17.9401 10.5854C17.9401 10.3127 18.0358 10.084 18.2272 9.89924C18.4179 9.71512 18.6544 9.62306 18.9368 9.62306H20.9302C21.2125 9.62306 21.4491 9.71512 21.6398 9.89924C21.8312 10.084 21.9268 10.3127 21.9268 10.5854C21.9268 10.858 21.8312 11.0864 21.6398 11.2705C21.4491 11.4553 21.2125 11.5477 20.9302 11.5477H18.9368ZM10.9634 21.1707C10.681 21.1707 10.4445 21.0784 10.2538 20.8936C10.0624 20.7095 9.96674 20.4811 9.96674 20.2084V18.2838C9.96674 18.0112 10.0624 17.7828 10.2538 17.5987C10.4445 17.4139 10.681 17.3215 10.9634 17.3215C11.2458 17.3215 11.4827 17.4139 11.674 17.5987C11.8647 17.7828 11.9601 18.0112 11.9601 18.2838V20.2084C11.9601 20.4811 11.8647 20.7095 11.674 20.8936C11.4827 21.0784 11.2458 21.1707 10.9634 21.1707ZM4.63453 5.82195L3.21427 4.47472C3.01494 4.28226 2.91527 4.0497 2.91527 3.77705C2.91527 3.5044 3.01494 3.27986 3.21427 3.10344C3.397 2.92701 3.62955 2.8388 3.91195 2.8388C4.19434 2.8388 4.42689 2.92701 4.60962 3.10344L6.02988 4.47472C6.2126 4.65115 6.30396 4.87568 6.30396 5.14834C6.30396 5.42099 6.2126 5.64553 6.02988 5.82195C5.83054 5.99837 5.59799 6.08659 5.33221 6.08659C5.06643 6.08659 4.83387 5.99837 4.63453 5.82195ZM17.2923 18.0673L15.897 16.696C15.7142 16.5035 15.6229 16.2752 15.6229 16.0108C15.6229 15.7459 15.7142 15.5252 15.897 15.3488C16.0797 15.1724 16.3082 15.0841 16.5827 15.0841C16.8564 15.0841 17.093 15.1724 17.2923 15.3488L18.7126 16.696C18.9119 16.8724 19.0072 17.097 18.9986 17.3696C18.9906 17.6423 18.8953 17.8748 18.7126 18.0673C18.5132 18.2598 18.2724 18.356 17.99 18.356C17.7076 18.356 17.475 18.2598 17.2923 18.0673ZM0.996674 11.5477C0.714283 11.5477 0.477739 11.4553 0.287042 11.2705C0.0956807 11.0864 0 10.858 0 10.5854C0 10.3127 0.0956807 10.084 0.287042 9.89924C0.477739 9.71512 0.714283 9.62306 0.996674 9.62306H2.99002C3.27241 9.62306 3.50929 9.71512 3.70065 9.89924C3.89135 10.084 3.9867 10.3127 3.9867 10.5854C3.9867 10.858 3.89135 11.0864 3.70065 11.2705C3.50929 11.4553 3.27241 11.5477 2.99002 11.5477H0.996674ZM3.21427 18.0673C3.03155 17.8909 2.94019 17.6663 2.94019 17.3937C2.94019 17.121 3.03155 16.8965 3.21427 16.7201L4.63453 15.3488C4.81726 15.1724 5.04583 15.0841 5.32025 15.0841C5.594 15.0841 5.83054 15.1724 6.02988 15.3488C6.22921 15.5412 6.32888 15.7699 6.32888 16.0349C6.32888 16.2992 6.22921 16.5276 6.02988 16.7201L4.63453 18.0673C4.4352 18.2598 4.19434 18.356 3.91195 18.356C3.62955 18.356 3.397 18.2598 3.21427 18.0673ZM10.9634 16.3592C9.30229 16.3592 7.89034 15.7979 6.72755 14.6752C5.56476 13.5525 4.98337 12.1892 4.98337 10.5854C4.98337 8.98152 5.56476 7.61826 6.72755 6.49557C7.89034 5.37288 9.30229 4.81153 10.9634 4.81153C12.6245 4.81153 14.0365 5.37288 15.1993 6.49557C16.3621 7.61826 16.9435 8.98152 16.9435 10.5854C16.9435 12.1892 16.3621 13.5525 15.1993 14.6752C14.0365 15.7979 12.6245 16.3592 10.9634 16.3592Z" fill="#2F2F2F"/>
<circle cx="11" cy="11" r="5.25" fill="white" stroke="#2F2F2F" stroke-width="1.5"/>
</svg>
