<svg width="445" height="298" viewBox="0 0 445 298" fill="none" xmlns="http://www.w3.org/2000/svg">
<path fill-rule="evenodd" clip-rule="evenodd" d="M15 0C6.71573 0 0 6.71573 0 15V283C0 291.284 6.71573 298 15 298H430C438.284 298 445 291.284 445 283V15C445 6.71573 438.284 0 430 0H15ZM222.5 263.5C285.737 263.5 337 212.237 337 149C337 85.7634 285.737 34.5 222.5 34.5C159.263 34.5 108 85.7634 108 149C108 212.237 159.263 263.5 222.5 263.5Z" fill="#6A6A6A" fill-opacity="0.5"/>
<path d="M113 79.4735C122.448 61.385 147.421 37.8776 182.527 31.3651" stroke="white"/>
<path d="M336.37 209C328.649 227.89 305.977 253.624 271.631 263.38" stroke="white"/>
</svg>
